<svg width="24" height="24" viewBox="0 0 24 24" fill="none" xmlns="http://www.w3.org/2000/svg">
<rect width="24" height="24" rx="6" fill="#111111"/>
<path d="M16.2382 10.8097H12.6191V7.19067C12.6191 6.69096 12.214 6.28589 11.7143 6.28589C11.2146 6.28589 10.8095 6.69096 10.8095 7.19067V10.8097H7.19052C6.69081 10.8097 6.28574 11.2148 6.28574 11.7145C6.28574 12.2142 6.69081 12.6192 7.19052 12.6192H10.8096V16.2383C10.8096 16.738 11.2147 17.1431 11.7144 17.1431C12.2141 17.1431 12.6191 16.738 12.6191 16.2383V12.6192H16.2382C16.7379 12.6192 17.143 12.2142 17.143 11.7145C17.143 11.2148 16.7378 10.8097 16.2382 10.8097Z" fill="#FBFBFB"/>
</svg>
