<svg width="24" height="24" viewBox="0 0 24 24" fill="none" xmlns="http://www.w3.org/2000/svg">
<path d="M9.15722 11.62C9.12722 11.62 9.10722 11.62 9.07722 11.62C9.02722 11.61 8.95722 11.61 8.89722 11.62C5.99722 11.53 3.80722 9.25 3.80722 6.44C3.80722 3.58 6.13722 1.25 8.99722 1.25C11.8572 1.25 14.1872 3.58 14.1872 6.44C14.1772 9.25 11.9772 11.53 9.18722 11.62C9.17722 11.62 9.16722 11.62 9.15722 11.62ZM8.99722 2.75C6.96722 2.75 5.30722 4.41 5.30722 6.44C5.30722 8.44 6.86722 10.05 8.85722 10.12C8.91722 10.11 9.04722 10.11 9.17722 10.12C11.1372 10.03 12.6772 8.42 12.6872 6.44C12.6872 4.41 11.0272 2.75 8.99722 2.75Z" fill="#999999"/>
<path d="M16.5372 11.75C16.5072 11.75 16.4772 11.75 16.4472 11.74C16.0372 11.78 15.6172 11.49 15.5772 11.08C15.5372 10.67 15.7872 10.3 16.1972 10.25C16.3172 10.24 16.4472 10.24 16.5572 10.24C18.0172 10.16 19.1572 8.96 19.1572 7.49C19.1572 5.97 17.9272 4.74 16.4072 4.74C15.9972 4.75 15.6572 4.41 15.6572 4C15.6572 3.59 15.9972 3.25 16.4072 3.25C18.7472 3.25 20.6572 5.16 20.6572 7.5C20.6572 9.8 18.8572 11.66 16.5672 11.75C16.5572 11.75 16.5472 11.75 16.5372 11.75Z" fill="#999999"/>
<path d="M9.16723 22.55C7.20723 22.55 5.23723 22.05 3.74723 21.05C2.35723 20.13 1.59723 18.87 1.59723 17.5C1.59723 16.13 2.35723 14.86 3.74723 13.93C6.74723 11.94 11.6072 11.94 14.5872 13.93C15.9672 14.85 16.7372 16.11 16.7372 17.48C16.7372 18.85 15.9772 20.12 14.5872 21.05C13.0872 22.05 11.1272 22.55 9.16723 22.55ZM4.57723 15.19C3.61723 15.83 3.09723 16.65 3.09723 17.51C3.09723 18.36 3.62723 19.18 4.57723 19.81C7.06723 21.48 11.2672 21.48 13.7572 19.81C14.7172 19.17 15.2372 18.35 15.2372 17.49C15.2372 16.64 14.7072 15.82 13.7572 15.19C11.2672 13.53 7.06723 13.53 4.57723 15.19Z" fill="#999999"/>
<path d="M18.3372 20.75C17.9872 20.75 17.6772 20.51 17.6072 20.15C17.5272 19.74 17.7872 19.35 18.1872 19.26C18.8172 19.13 19.3972 18.88 19.8472 18.53C20.4172 18.1 20.7272 17.56 20.7272 16.99C20.7272 16.42 20.4172 15.88 19.8572 15.46C19.4172 15.12 18.8672 14.88 18.2172 14.73C17.8172 14.64 17.5572 14.24 17.6472 13.83C17.7372 13.43 18.1372 13.17 18.5472 13.26C19.4072 13.45 20.1572 13.79 20.7672 14.26C21.6972 14.96 22.2272 15.95 22.2272 16.99C22.2272 18.03 21.6872 19.02 20.7572 19.73C20.1372 20.21 19.3572 20.56 18.4972 20.73C18.4372 20.75 18.3872 20.75 18.3372 20.75Z" fill="#999999"/>
</svg>
