<svg width="24" height="24" viewBox="0 0 24 24" fill="none" xmlns="http://www.w3.org/2000/svg">
<path d="M21.5309 10.6279L21.531 10.628C21.8022 10.8996 21.9867 11.2455 22.0613 11.622C22.136 11.9985 22.0973 12.3886 21.9503 12.7431C21.8032 13.0976 21.5544 13.4006 21.2353 13.6138C20.9161 13.8269 20.5409 13.9407 20.1571 13.9407H19.9556V19.8453V19.8454C19.9549 20.4431 19.7172 21.0162 19.2945 21.4389C18.8718 21.8616 18.2987 22.0994 17.701 22.1H17.7009H14.5093H14.5092V22C14.4322 22 14.3558 21.9849 14.2846 21.9554C14.2134 21.9259 14.1487 21.8827 14.0943 21.8281C14.0398 21.7736 13.9966 21.7089 13.9672 21.6376C13.9378 21.5664 13.9227 21.4901 13.9229 21.413L21.5309 10.6279ZM21.5309 10.6279L13.3716 2.46858C13.1914 2.28832 12.9774 2.14533 12.7419 2.04777C12.5064 1.95021 12.254 1.9 11.9991 1.9C11.7442 1.9 11.4918 1.95021 11.2563 2.04777C11.0208 2.14533 10.8068 2.28832 10.6266 2.46858L2.47357 10.6216L2.46525 10.6299L2.46508 10.6301C2.19967 10.8967 2.0175 11.2348 1.94078 11.6031C1.86405 11.9714 1.89606 12.3541 2.03292 12.7046C2.16978 13.0551 2.40558 13.3582 2.71162 13.577C3.01684 13.7953 3.3788 13.9204 3.75363 13.9371C3.77598 13.9393 3.79755 13.94 3.81781 13.94H4.04293V19.8433V19.8433C4.04311 20.4413 4.28055 21.0148 4.70312 21.4378C5.12569 21.8609 5.69886 22.0991 6.29683 22.1H6.29699H9.48797C9.66991 22.1 9.84441 22.0277 9.97306 21.8991C10.1017 21.7704 10.174 21.5959 10.174 21.414V16.7063C10.1743 16.4722 10.2675 16.2477 10.4331 16.0821C10.5987 15.9165 10.8233 15.8234 11.0574 15.8232H12.9398C13.1739 15.8234 13.3984 15.9165 13.5639 16.0821C13.7295 16.2477 13.8226 16.4722 13.8229 16.7063L13.8229 21.4128L21.5309 10.6279ZM20.58 12.3817C20.6741 12.2772 20.7265 12.1412 20.7265 11.9999C20.7265 11.8493 20.6669 11.7048 20.5609 11.5979L20.58 12.3817ZM20.58 12.3817L20.5597 12.4021C20.507 12.4551 20.4444 12.4972 20.3754 12.5258C20.3063 12.5544 20.2323 12.5691 20.1576 12.569H20.1574H19.2699C19.088 12.569 18.9135 12.6413 18.7848 12.7699C18.6562 12.8986 18.5839 13.073 18.5839 13.255V19.8438C18.5837 20.078 18.4905 20.3025 18.325 20.468C18.1594 20.6336 17.9349 20.7267 17.7008 20.727H15.1952V16.7062V16.7061C15.1945 16.1084 14.9567 15.5353 14.5341 15.1127C14.1114 14.69 13.5384 14.4522 12.9406 14.4515H12.9405H11.0577H11.0576C10.4598 14.4521 9.88665 14.6899 9.46391 15.1125C9.04118 15.5352 8.80336 16.1083 8.80262 16.7061V16.7062V20.727H6.29709C6.06294 20.7267 5.83846 20.6336 5.67289 20.468C5.50732 20.3025 5.4142 20.078 5.41397 19.8438V13.2547V13.2546C5.41386 13.073 5.34176 12.8988 5.21345 12.7703C5.08515 12.6418 4.91111 12.5694 4.72951 12.569H4.72928H3.85574H3.829C3.71761 12.5669 3.60927 12.5322 3.51743 12.4691C3.42538 12.4059 3.35399 12.3169 3.31218 12.2133C3.27037 12.1098 3.26 11.9962 3.28235 11.8868C3.3047 11.7773 3.35878 11.6769 3.43786 11.598L3.43794 11.5979L11.5966 3.43861L11.5966 3.43857C11.6495 3.38569 11.7122 3.34373 11.7813 3.31511C11.8503 3.28648 11.9243 3.27175 11.9991 3.27175C12.0738 3.27175 12.1479 3.28648 12.2169 3.31511C12.286 3.34373 12.3487 3.38569 12.4016 3.43857L12.4016 3.43861L20.5573 11.5943L20.5607 11.5977L20.58 12.3817Z" fill="#111111" stroke="#999999" stroke-width="0.2"/>
</svg>
