<svg width="24" height="24" viewBox="0 0 24 24" fill="none" xmlns="http://www.w3.org/2000/svg">
<path d="M5.99762 2L2.99762 6V20C2.99762 20.5304 3.20833 21.0391 3.58341 21.4142C3.95848 21.7893 4.46719 22 4.99762 22H18.9976C19.5281 22 20.0368 21.7893 20.4118 21.4142C20.7869 21.0391 20.9976 20.5304 20.9976 20V6L17.9976 2H5.99762Z" stroke="#999999" stroke-width="2" stroke-linecap="round" stroke-linejoin="round"/>
<path d="M2.99762 6H20.9976" stroke="#999999" stroke-width="2" stroke-linecap="round" stroke-linejoin="round"/>
<path d="M15.9976 10C15.9976 11.0609 15.5762 12.0783 14.826 12.8284C14.0759 13.5786 13.0585 14 11.9976 14C10.9368 14 9.91934 13.5786 9.16919 12.8284C8.41905 12.0783 7.99762 11.0609 7.99762 10" stroke="#999999" stroke-width="2" stroke-linecap="round" stroke-linejoin="round"/>
</svg>
